# xmcd
#
# Track frame offsets:
#	150
#	17294
#	32874
#	47617
#	62994
#	80362
#	102984
#	125272
#	135937
#	151559
#	169351
#	187226
#
# Disc length: 2722 seconds
#
# Revision: 1
# Processed by: cddbd v1.5.2PL0 Copyright (c) Steve Scherf et al.
# Submitted via: audiograbber 1.83.01
#
DISCID=920aa00c
DTITLE=Toxik - World Circus
DYEAR=1987
DGENRE=Metal
TTITLE0=Heart Attack 
TTITLE1=Social Overload 
TTITLE2=Pain and Misery 
TTITLE3=Voices 
TTITLE4=Door to Hell
TTITLE5=World Circus
TTITLE6=47 Seconds of Sanity - Count Your Blessings 
TTITLE7=False Prophets 
TTITLE8=Haunted Earth 
TTITLE9=Victims 
TTITLE10=Machine Dream (demo version with Mike Sanders)
TTITLE11=Radio Interview (from 1989)
EXTD=
EXTT0=
EXTT1=
EXTT2=
EXTT3=
EXTT4=
EXTT5=
EXTT6=
EXTT7=
EXTT8=
EXTT9=
EXTT10=
EXTT11=
PLAYORDER=
